<svg width="100" height="100" viewBox="0 0 100 100" fill="none" xmlns="http://www.w3.org/2000/svg">
<circle cx="50" cy="50" r="50" fill="#020617"/>
<path d="M66.5332 14.1025C69.2028 13.8679 72.4188 13.8157 74.7148 16.4541C75.7766 17.6744 76.0796 19.1278 75.7158 20.4648C75.3591 21.7762 74.3891 22.8814 73.082 23.5332C71.9262 24.1095 70.8684 24.1606 69.9189 23.7344C69.0471 23.3429 68.4066 22.6048 67.9092 21.9473C67.6555 21.6119 67.4044 21.2493 67.1768 20.9287C66.9411 20.5969 66.7203 20.2944 66.4932 20.0264C66.0412 19.4931 65.6471 19.1943 65.2451 19.084C64.2785 18.9252 63.4392 19.2058 62.6533 19.8359C61.8285 20.4973 61.085 21.5317 60.4287 22.7871C59.1161 25.2985 58.3053 28.3838 57.8086 30.2246C57.3246 32.0994 56.8411 34.419 56.3789 36.6055C59.1261 36.5396 61.7638 36.5688 64.5234 36.6006L65.9131 36.6162L65.4561 37.9297C64.5918 40.4111 62.5119 41.271 60.4482 41.5342C59.423 41.6649 58.3478 41.6595 57.3408 41.625C56.6203 41.6003 55.9615 41.5631 55.3389 41.541C54.3848 46.3207 53.3648 51.0877 52.2734 55.8369C51.1242 60.9549 49.7882 67.1432 47.332 72.5918C44.8702 78.053 41.2214 82.9135 35.3633 85.2168L35.3145 85.2363L35.2637 85.25C33.9798 85.6051 33.0123 85.8656 31.9922 85.96C30.9541 86.056 29.907 85.9775 28.4297 85.7314C26.0832 85.3399 24.5256 83.7206 24.1104 81.8262C23.6932 79.9229 24.453 77.8361 26.4844 76.623H26.4854C27.5369 75.9955 28.5631 75.9474 29.5 76.3359C30.3555 76.6907 31.0505 77.3757 31.6094 78.0127C31.8969 78.3404 32.1737 78.6869 32.4316 79.0088C32.6952 79.3377 32.9392 79.6401 33.1807 79.9141C33.6903 80.4924 34.0617 80.7832 34.3486 80.875H34.3477C34.7551 81.005 35.4028 80.8055 36.2227 79.9746C36.9871 79.1998 37.6026 78.1585 37.8555 77.4629L37.8623 77.4434L37.8711 77.4238C40.1337 71.9393 41.1051 66.0001 42.3525 60.0254C43.5917 53.8387 44.9273 47.6711 46.3584 41.5254C45.6341 41.5411 44.7821 41.5628 43.8867 41.5703C42.4939 41.582 40.9639 41.5605 40.124 41.3633L39.5518 41.2295L39.3916 40.6631C39.352 40.5238 39.3272 40.4555 39.2988 40.3652C39.2809 40.3082 39.2095 40.1011 39.2256 39.8506C39.2404 39.6205 39.328 39.4254 39.3428 39.3887C39.3728 39.3139 39.4058 39.2333 39.4531 39.0977L39.5273 38.8857L39.6855 38.7256C40.2013 38.2023 40.8939 37.8455 41.5918 37.5898C42.3011 37.3301 43.0923 37.148 43.8711 37.0127C45.0983 36.7996 46.3854 36.6921 47.373 36.6104C49.9205 26.6996 54.6494 16.1595 66.4502 14.1133L66.4912 14.1055L66.5332 14.1025Z" fill="white" stroke="white" stroke-width="2"/>
</svg>
