<svg width="295" height="232" viewBox="0 0 295 232" fill="none" xmlns="http://www.w3.org/2000/svg">
<rect x="8.5" y="8.5" width="278" height="215" rx="46.5" stroke="url(#paint0_linear_292_303)" stroke-width="17"/>
<path d="M57.8659 53V179.925H41V53H57.8659Z" fill="url(#paint1_linear_292_303)"/>
<path d="M77.279 139.911C77.279 137.559 77.7092 135.379 78.5697 133.371C79.4876 131.306 80.6923 129.499 82.1839 127.95C83.7328 126.401 85.5399 125.197 87.6051 124.336C89.6703 123.418 91.8502 122.959 94.1449 122.959H137.859V105.233H82.5281V88.2808H137.859C140.211 88.2808 142.419 88.7397 144.485 89.6576C146.55 90.5181 148.328 91.7228 149.82 93.2717C151.369 94.7633 152.573 96.5417 153.434 98.6069C154.352 100.672 154.811 102.881 154.811 105.233V179.925H137.859V164.436C137.687 166.558 137.113 168.566 136.138 170.459C135.162 172.352 133.9 174.016 132.351 175.45C130.86 176.827 129.139 177.917 127.188 178.72C125.238 179.523 123.173 179.925 120.993 179.925H94.1449C91.8502 179.925 89.6703 179.495 87.6051 178.634C85.5399 177.716 83.7328 176.511 82.1839 175.02C80.6923 173.471 79.4876 171.664 78.5697 169.599C77.7092 167.534 77.279 165.325 77.279 162.973V139.911ZM94.1449 162.973H137.859V139.911H94.1449V162.973Z" fill="url(#paint2_linear_292_303)"/>
<path d="M255.37 162.973C255.37 165.325 254.911 167.534 253.993 169.599C253.132 171.664 251.928 173.471 250.379 175.02C248.887 176.511 247.109 177.716 245.043 178.634C242.978 179.495 240.77 179.925 238.418 179.925H191.176C188.881 179.925 186.701 179.495 184.636 178.634C182.571 177.716 180.764 176.511 179.215 175.02C177.723 173.471 176.518 171.664 175.601 169.599C174.74 167.534 174.31 165.325 174.31 162.973V53H191.176V104.458C191.29 102.221 191.807 100.127 192.725 98.1766C193.643 96.1688 194.847 94.4478 196.339 93.0136C197.888 91.522 199.666 90.3747 201.674 89.5716C203.682 88.7111 205.833 88.2808 208.128 88.2808H238.418C240.77 88.2808 242.978 88.7397 245.043 89.6576C247.109 90.5181 248.887 91.7228 250.379 93.2717C251.928 94.7633 253.132 96.5417 253.993 98.6069C254.911 100.672 255.37 102.881 255.37 105.233V162.973ZM191.176 105.233V162.973H238.418V105.233H191.176Z" fill="url(#paint3_linear_292_303)"/>
<defs>
<linearGradient id="paint0_linear_292_303" x1="147.5" y1="0" x2="147.5" y2="232" gradientUnits="userSpaceOnUse">
<stop stop-color="#697DBA"/>
<stop offset="1" stop-color="#284392"/>
</linearGradient>
<linearGradient id="paint1_linear_292_303" x1="-0.500008" y1="-44" x2="44.5854" y2="213.125" gradientUnits="userSpaceOnUse">
<stop stop-color="#566EBA"/>
<stop offset="1" stop-color="#1E3A8A"/>
</linearGradient>
<linearGradient id="paint2_linear_292_303" x1="-0.500008" y1="-44" x2="44.5854" y2="213.125" gradientUnits="userSpaceOnUse">
<stop stop-color="#566EBA"/>
<stop offset="1" stop-color="#1E3A8A"/>
</linearGradient>
<linearGradient id="paint3_linear_292_303" x1="-0.500008" y1="-44" x2="44.5854" y2="213.125" gradientUnits="userSpaceOnUse">
<stop stop-color="#566EBA"/>
<stop offset="1" stop-color="#1E3A8A"/>
</linearGradient>
</defs>
</svg>
