<svg width="503" height="100" viewBox="0 0 503 100" fill="none" xmlns="http://www.w3.org/2000/svg">
<rect x="1" y="1" width="84" height="98" rx="7" fill="white" stroke="white" stroke-width="2"/>
<rect x="85" y="1" width="126" height="98" rx="7" stroke="white" stroke-width="2"/>
<rect x="211" y="1" width="291" height="98" rx="7" stroke="white" stroke-width="2"/>
<path d="M62.4142 51.4142C63.1953 50.6332 63.1953 49.3668 62.4142 48.5858L49.6863 35.8579C48.9052 35.0768 47.6389 35.0768 46.8579 35.8579C46.0768 36.6389 46.0768 37.9052 46.8579 38.6863L58.1716 50L46.8579 61.3137C46.0768 62.0948 46.0768 63.3611 46.8579 64.1421C47.6389 64.9232 48.9052 64.9232 49.6863 64.1421L62.4142 51.4142ZM24 50V52H61V50V48H24V50Z" fill="#1F3A8A"/>
<path d="M112.219 24.42V74H105.631V24.42H112.219ZM119.802 58.3697C119.802 57.4509 119.97 56.5994 120.307 55.8151C120.665 55.0083 121.136 54.3025 121.718 53.6974C122.323 53.0924 123.029 52.6218 123.836 52.2856C124.643 51.9271 125.494 51.7478 126.391 51.7478H143.466V44.8234H121.853V38.2016H143.466C144.385 38.2016 145.248 38.3808 146.055 38.7394C146.861 39.0755 147.556 39.5461 148.139 40.1511C148.744 40.7338 149.214 41.4285 149.55 42.2352C149.909 43.0419 150.088 43.9047 150.088 44.8234V74H143.466V67.9496C143.399 68.7787 143.175 69.563 142.794 70.3025C142.413 71.042 141.92 71.6919 141.315 72.2521C140.732 72.7899 140.06 73.2157 139.298 73.5294C138.536 73.8431 137.73 74 136.878 74H126.391C125.494 74 124.643 73.8319 123.836 73.4958C123.029 73.1373 122.323 72.6667 121.718 72.084C121.136 71.479 120.665 70.7731 120.307 69.9664C119.97 69.1596 119.802 68.2969 119.802 67.3781V58.3697ZM126.391 67.3781H143.466V58.3697H126.391V67.3781ZM189.369 67.3781C189.369 68.2969 189.19 69.1596 188.831 69.9664C188.495 70.7731 188.025 71.479 187.419 72.084C186.837 72.6667 186.142 73.1373 185.335 73.4958C184.529 73.8319 183.666 74 182.747 74H164.293C163.397 74 162.545 73.8319 161.739 73.4958C160.932 73.1373 160.226 72.6667 159.621 72.084C159.038 71.479 158.568 70.7731 158.209 69.9664C157.873 69.1596 157.705 68.2969 157.705 67.3781V24.42H164.293V44.5209C164.338 43.6469 164.54 42.829 164.898 42.0671C165.257 41.2828 165.728 40.6105 166.31 40.0503C166.915 39.4677 167.61 39.0195 168.394 38.7058C169.179 38.3696 170.019 38.2016 170.915 38.2016H182.747C183.666 38.2016 184.529 38.3808 185.335 38.7394C186.142 39.0755 186.837 39.5461 187.419 40.1511C188.025 40.7338 188.495 41.4285 188.831 42.2352C189.19 43.0419 189.369 43.9047 189.369 44.8234V67.3781ZM164.293 44.8234V67.3781H182.747V44.8234H164.293Z" fill="white"/>
<path d="M256.177 74L239.101 58.7058V74H232.513V24.42H239.101V52.3192L254.798 38.2016H264.109L244.882 55.4789L265.488 74H256.177ZM266.852 38.2016H273.441V67.3781H291.894V38.2016H298.516V74H291.894V67.9496C291.827 68.7787 291.603 69.563 291.222 70.3025C290.841 71.042 290.348 71.6919 289.743 72.2521C289.16 72.7899 288.488 73.2157 287.726 73.5294C286.964 73.8431 286.158 74 285.306 74H273.441C272.544 74 271.693 73.8319 270.886 73.4958C270.079 73.1373 269.373 72.6667 268.768 72.084C268.186 71.479 267.715 70.7731 267.356 69.9664C267.02 69.1596 266.852 68.2969 266.852 67.3781V38.2016ZM312.688 44.8234V74H306.099V38.2016H312.688V44.5209C312.733 43.6469 312.934 42.829 313.293 42.0671C313.651 41.2828 314.122 40.6105 314.705 40.0503C315.31 39.4677 316.004 39.0195 316.789 38.7058C317.573 38.3696 318.413 38.2016 319.31 38.2016H326.335C327.254 38.2016 328.105 38.3808 328.889 38.7394C329.696 39.0755 330.402 39.5461 331.007 40.1511C331.612 40.7338 332.083 41.4285 332.419 42.2352C332.777 43.0419 332.957 43.9047 332.957 44.8234V50.8739H326.335V44.8234H312.688ZM337.75 38.2016H344.338V67.3781H362.792V38.2016H369.414V74H362.792V67.9496C362.725 68.7787 362.501 69.563 362.12 70.3025C361.739 71.042 361.246 71.6919 360.641 72.2521C360.058 72.7899 359.386 73.2157 358.624 73.5294C357.862 73.8431 357.055 74 356.204 74H344.338C343.442 74 342.59 73.8319 341.784 73.4958C340.977 73.1373 340.271 72.6667 339.666 72.084C339.083 71.479 338.613 70.7731 338.254 69.9664C337.918 69.1596 337.75 68.2969 337.75 67.3781V38.2016ZM383.585 24.42V74H376.997V24.42H383.585ZM391.169 38.2016H397.757V67.3781H416.211V38.2016H422.833V74H416.211V67.9496C416.144 68.7787 415.919 69.563 415.538 70.3025C415.158 71.042 414.665 71.6919 414.059 72.2521C413.477 72.7899 412.805 73.2157 412.043 73.5294C411.281 73.8431 410.474 74 409.622 74H397.757C396.861 74 396.009 73.8319 395.202 73.4958C394.396 73.1373 393.69 72.6667 393.085 72.084C392.502 71.479 392.031 70.7731 391.673 69.9664C391.337 69.1596 391.169 68.2969 391.169 67.3781V38.2016ZM458.786 44.8234V74H452.164V44.8234H437.004V74H430.416V38.2016H437.004V44.5209C437.049 43.6469 437.251 42.829 437.609 42.0671C437.968 41.2828 438.438 40.6105 439.021 40.0503C439.626 39.4677 440.321 39.0195 441.105 38.7058C441.889 38.3696 442.73 38.2016 443.626 38.2016H452.164C453.038 38.2016 453.867 38.3696 454.651 38.7058C455.436 39.0195 456.13 39.4677 456.735 40.0503C457.34 40.6105 457.822 41.2828 458.181 42.0671C458.562 42.829 458.763 43.6469 458.786 44.5209C458.831 43.6469 459.021 42.829 459.357 42.0671C459.716 41.2828 460.186 40.6105 460.769 40.0503C461.374 39.4677 462.069 39.0195 462.853 38.7058C463.637 38.3696 464.478 38.2016 465.374 38.2016H473.912C474.831 38.2016 475.693 38.3808 476.5 38.7394C477.307 39.0755 478.001 39.5461 478.584 40.1511C479.189 40.7338 479.66 41.4285 479.996 42.2352C480.354 43.0419 480.534 43.9047 480.534 44.8234V74H473.912V44.8234H458.786Z" fill="white"/>
</svg>
