<svg width="1195" height="357" viewBox="0 0 1195 357" fill="none" xmlns="http://www.w3.org/2000/svg">
<path d="M858.884 50.4443C858.244 79.7225 859.43 109.72 858.714 139.078C859.37 138.168 860.027 137.263 860.7 136.362C870.958 122.528 884.08 114.065 901.278 111.631C919.594 108.962 938.216 113.82 952.899 125.099C990.101 153.952 990.716 222.717 962.723 258.061C943.069 281.697 907.597 287.81 880.269 274.347C870.608 269.589 864.051 260.797 857.383 252.62L856.649 277.706C845.633 278.004 834.617 278.072 823.601 277.919L823.711 50.4414L858.884 50.4443ZM945.482 182.903C941.62 156.153 925.521 138.501 897.145 140.259C885.787 142.472 874.258 147.805 868.179 158.039C847.365 193.118 857.316 253.53 907.385 252.379C941.901 247.817 949.669 211.937 945.482 182.903Z" fill="#020617"/>
<path d="M259.206 112.559C305.619 107.605 347.219 141.318 351.986 187.749C356.753 234.185 322.871 275.651 276.419 280.23C230.232 284.775 189.057 251.128 184.318 204.965C179.578 158.792 213.058 117.486 259.206 112.559ZM312.413 182.564C308.381 156.123 290.792 138.125 262.66 140.337C250.608 142.376 240.217 147.315 233.256 157.687C210.496 191.594 222.572 256.883 273.203 252.321C307.926 247.12 317.005 212.672 312.413 182.564Z" fill="#020617"/>
<path d="M722.026 111.169C762.314 110.548 791.646 125.103 791.229 169.629C791.007 192.907 791.493 216.578 790.939 239.89C790.666 251.759 797.64 250.786 806.44 250.019L806.405 277.211C783.588 281.568 763.781 280.937 758.972 254.461C743.07 276.972 724.515 283.479 696.889 280.801C681.114 279.275 668.724 273.63 658.748 260.976C650.716 248.024 648.687 233.725 652.37 218.829C658.919 192.302 687.151 185.25 710.719 182.504C720.61 180.901 742.421 181.354 750.325 175.454C766.006 163.738 750.59 139.457 733.051 138.638C719.963 138.027 710.975 137.051 699.976 145.206C691.875 151.22 691.124 158.152 690.11 166.739L656.131 164.565C658.254 152.212 659.525 143.027 667.838 132.895C679.903 118.173 697.954 113.273 716.176 111.449C718.12 111.294 720.073 111.201 722.026 111.169ZM755.082 199.064C730.534 207.011 677.2 201.204 686.971 239.31C687.832 242.652 691.541 247.018 694.057 249.346C713.583 261.062 738.14 255.972 751.024 236.403C754.741 230.767 760.121 202.27 755.082 199.064Z" fill="#020617"/>
<path d="M211.906 0.500136C225.519 -0.696162 239.404 -0.598105 249.273 10.7433C257.943 20.7059 253.581 33.38 242.53 38.8908C223.373 48.4425 220.528 19.4568 205.987 15.8116C179.165 11.0878 167.117 57.6769 162.122 76.1876C159.143 87.7174 156.171 102.541 153.436 115.279C169.671 114.712 184.941 114.879 201.166 115.066C194.192 135.094 168.209 130.017 150.323 129.943C145.238 155.635 139.762 181.251 133.897 206.772C122.133 259.16 107.09 330.665 50.9001 352.758C37.676 356.416 32.936 357.533 18.2973 355.094C-1.58014 351.777 -6.72515 328.201 10.1697 318.114C26.315 308.478 34.4743 336.54 46.0442 340.24C56.1176 343.455 67.1572 328.226 70.2353 319.759C81.9877 291.272 87.0466 260.379 93.3308 230.28C100.058 196.693 107.343 163.217 115.182 129.869C106.575 129.847 85.2765 130.938 78.1677 129.269C77.2588 126.07 77.2477 127.649 78.3928 124.37C85.9014 116.75 107.181 115.766 117.954 114.786C130.696 63.3813 153.802 10.5753 211.906 0.500136Z" fill="#020617"/>
<path d="M1055.08 111.455C1078.08 109.24 1106.5 114.089 1121.03 133.847C1127.98 143.289 1129.36 151.929 1131.49 163.074C1121.05 163.961 1109.19 164.31 1098.56 164.95C1096.89 157.381 1095.1 150.953 1089.02 145.5C1076.54 134.323 1048.13 134.456 1036.75 147.132C1033.93 150.276 1032.36 156.71 1033.24 160.635C1037.64 180.622 1075.79 180.809 1093.16 185.175C1121.38 190.948 1138.22 207.541 1134.51 238.262C1130.39 272.438 1098.81 279.736 1070.3 281.553C1030 282.056 998.804 270.673 994.037 226.317C1005.4 226.086 1016.76 225.669 1028.11 225.063C1033.59 252.101 1047.64 256.518 1072.93 255.64C1101.8 254.634 1112.81 222.718 1081.92 214.132C1052.33 205.912 1003.27 207.481 999.417 166.305C995.981 129.652 1023.08 114.593 1055.08 111.455Z" fill="#020617"/>
<path d="M595.757 50.4503L630.674 50.3906L630.487 277.921C619.035 278.126 607.226 277.989 595.74 277.998L595.757 50.4503Z" fill="#020617"/>
<path d="M446.361 113.027C451.785 112.572 458.423 112.826 463.967 112.894L464.106 145.39C461.144 145.29 458.18 145.223 455.217 145.187C402.824 144.697 405.475 180.965 405.508 220.018L405.553 277.863C398.157 277.974 376.868 278.724 370.674 277.343C369.417 274.947 369.791 272.193 369.804 269.37L369.868 115.209L403.315 115.339C403.704 125.548 403.985 135.761 404.156 145.976C413.907 124.964 423.538 117.23 446.361 113.027Z" fill="#020617"/>
<path d="M470.309 175.811L569.395 175.87L569.357 204.759L470.286 204.861L470.309 175.811Z" fill="#0055FF"/>
<path d="M534.365 140.804L534.306 239.89L505.417 239.852L505.315 140.781L534.365 140.804Z" fill="#0055FF"/>
<path d="M1164.38 234.91C1177.09 231.312 1190.3 238.705 1193.89 251.409C1197.47 264.123 1190.06 277.322 1177.34 280.886C1164.66 284.45 1151.48 277.058 1147.9 264.37C1144.33 251.682 1151.7 238.5 1164.38 234.91Z" fill="#0055FF"/>
</svg>
