<?xml version="1.0" encoding="UTF-8"?>
<svg id="katman_1" xmlns="http://www.w3.org/2000/svg" version="1.1" viewBox="0 0 107.4 37.7">
  <!-- Generator: Adobe Illustrator 29.8.1, SVG Export Plug-In . SVG Version: 2.1.1 Build 2)  -->
  <defs>
    <style>
      .st0 {
        fill: #495057;
      }

      .st0, .st1 {
        fill-rule: evenodd;
      }

      .st1 {
        fill: #1e64ff;
      }
    </style>
  </defs>
  <path id="Combined-Shape" class="st1" d="M5.2,13.9c.7-.4,1.5,0,1.9.6h0l2.9,5.5,2.9-5.5c.4-.6,1.2-.9,1.9-.6.7.4,1,1.1.6,1.8h0l-6.2,11.8c-.2.5-.7.7-1.1.7s-.5,0-.7-.1c-.7-.4-1-1.1-.6-1.8h0l1.8-3.4-3.8-7.2c-.4-.6-.2-1.5.4-1.8h0ZM38,13.7c1.5,0,2.9.5,3.9,1.5s.5,1.4,0,1.9-1.4.5-2,0c-.5-.5-1.2-.8-2-.8s-1.5.3-2,.8-.8,1.2-.8,1.9.3,1.4.8,1.9,1.2.8,2,.8,1.5-.3,2-.8,1.4-.5,2,0c.5.5.5,1.4,0,1.9-1,1-2.4,1.6-3.9,1.6s-2.9-.5-3.9-1.6c-1-1-1.6-2.4-1.6-3.8s.6-2.8,1.6-3.9c1-1,2.4-1.4,3.9-1.4h0ZM49.1,13.6c3,0,5.5,2.4,5.5,5.4s-2.5,5.4-5.5,5.4-5.5-2.4-5.5-5.4,2.5-5.4,5.5-5.4ZM1.5,13.8c.8,0,1.4.6,1.4,1.4h0v7.8c0,.7-.6,1.4-1.4,1.4s-1.4-.6-1.4-1.4h0v-7.8c0-.7.6-1.4,1.4-1.4ZM24.6,13.8c.3,0,.6,0,.9.3.6.5.6,1.3.2,1.9h0l-4.8,5.6h3.8c.8,0,1.4.6,1.4,1.4s-.6,1.4-1.4,1.4h-6.7c-.3,0-.6,0-.9-.3-.6-.5-.6-1.3-.2-1.9h0l4.8-5.6h-3.2c-.8,0-1.4-.6-1.4-1.4s.6-1.4,1.4-1.4c0,0,6.1,0,6.1,0ZM29.3,13.8c.8,0,1.4.6,1.4,1.4h0v7.8c0,.7-.6,1.4-1.4,1.4s-1.4-.6-1.4-1.4h0v-7.8c0-.7.6-1.4,1.4-1.4ZM49.1,16.3c-1.5,0-2.8,1.2-2.8,2.7s1.3,2.7,2.8,2.7,2.8-1.2,2.8-2.7-1.3-2.7-2.8-2.7ZM1.5,9.5c.8,0,1.5.7,1.5,1.5s-.7,1.5-1.5,1.5-1.5-.7-1.5-1.5.7-1.5,1.5-1.5ZM29.3,9.5c.8,0,1.5.7,1.5,1.5s-.7,1.5-1.5,1.5-1.5-.7-1.5-1.5.7-1.5,1.5-1.5Z"/>
  <path id="Combined-Shape1" class="st0" d="M84,13.3c2.7,0,5.3,2.3,5.3,5.5s-2.6,5.5-5.3,5.5-5.3-2.3-5.3-5.5,2.6-5.5,5.3-5.5ZM97.4,13.2c.4,0,.8.4.8.8v9.4c0,.5-.4.8-.8.8s-.8-.4-.8-.8v-.8c0,.7-1,1.7-2.5,1.7s-3.7-1.3-3.7-4.1,2-4.1,3.7-4.1,2.1.6,2.5,1.5v-3.6c0-.4.4-.8.8-.8ZM60.7,16.1c.3,0,.6.3.6.6v6.8c0,.4-.3.7-.6.7s-.6-.3-.6-.7v-6.8c0-.4.3-.6.6-.6ZM63.6,13.2c.3,0,.6.3.6.6v9.8c0,.3-.3.6-.6.6s-.6-.3-.6-.6v-9.8c0-.3.3-.6.6-.6ZM69.6,16.1c1.7,0,3.8,1.4,3.8,3.9s-.3.7-.8.7h-5.6c.2,1.7,1.5,2.5,2.8,2.5s1.3-.2,1.8-.6c.2-.2.4-.2.5-.2.3,0,.5.2.5.5s0,.3-.3.6c-.6.5-1.5.8-2.5.8-1.9,0-4-1.3-4-4s2.1-4.2,3.8-4.2c0,0,0,0,0,0ZM103.6,16.1c1.7,0,3.8,1.4,3.8,3.8s-.4.9-1,.9h-5.1c.2,1.4,1.3,2.1,2.5,2.1s1-.2,1.5-.4c.3-.2.4-.3.6-.3.4,0,.6.3.6.6s0,.4-.4.7c-.6.5-1.4.7-2.4.7-2,0-4.1-1.3-4.1-4s2.2-4.1,3.9-4.1h0ZM94.3,17.5c-1.1,0-2.4.9-2.4,2.7s1.3,2.7,2.4,2.7,2.3-.8,2.3-2.7-1.3-2.7-2.3-2.7ZM84,14.9c-1.9,0-3.6,1.6-3.6,3.9s1.7,3.9,3.6,3.9,3.6-1.6,3.6-3.9-1.7-3.9-3.6-3.9ZM69.6,17.2c-1.2,0-2.5.8-2.6,2.5h5.2c-.2-1.7-1.5-2.5-2.6-2.5h0ZM103.6,17.5c-1,0-2.2.6-2.3,2.1h4.6c-.2-1.5-1.3-2.1-2.3-2.1ZM60.7,13c.3,0,.6.3.6.6s-.3.6-.6.6-.7-.3-.7-.6.3-.6.7-.6ZM85.9,10.5c.5,0,.9.4.9.9s-.4.9-.9.9-.9-.4-.9-.9.4-.9.9-.9ZM82.2,10.5c.5,0,.9.4.9.9s-.4.9-.9.9-.9-.4-.9-.9.4-.9.9-.9Z"/>
</svg>