<?xml version="1.0" encoding="UTF-8"?>
<svg id="katman_1" xmlns="http://www.w3.org/2000/svg" version="1.1" viewBox="0 0 107.4 37.7">
  <!-- Generator: Adobe Illustrator 29.8.1, SVG Export Plug-In . SVG Version: 2.1.1 Build 2)  -->
  <defs>
    <style>
      .st0 {
        fill: #495057;
      }

      .st1 {
        fill: #1e64ff;
        fill-rule: evenodd;
      }
    </style>
  </defs>
  <path id="Combined-Shape" class="st1" d="M69.7,14.9c.3-.6,1.1-.8,1.7-.5s.8,1.1.5,1.7h0l-5.6,10.8c-.2.4-.6.6-1,.7-.2,0-.4,0-.6-.1-.6-.3-.8-1.1-.5-1.7h0l1.6-3.1-3.5-6.6c-.3-.6,0-1.3.5-1.7.6-.3,1.4,0,1.7.5h0l2.7,5.1,2.5-5.1h0ZM92.4,14.1c1.3,0,2.6.5,3.5,1.5.5.5.5,1.3,0,1.7-.5.5-1.3.5-1.7,0-.5-.5-1.1-.7-1.8-.7s-1.3.3-1.8.7c-.5.5-.7,1.1-.7,1.8s.3,1.3.7,1.8c.5.5,1.1.7,1.8.7s1.3-.3,1.8-.7c.5-.5,1.3-.5,1.7,0,.5.5.5,1.3,0,1.7-.9.9-2.2,1.5-3.5,1.5s-2.6-.5-3.5-1.5c-.9-.9-1.5-2.2-1.5-3.5s.5-2.6,1.5-3.5c.9-.9,2.2-1.5,3.5-1.5ZM102.4,14.1c2.8,0,5,2.2,5,5s-2.2,5-5,5-5-2.2-5-5,2.2-5,5-5ZM59.4,14.2c.7,0,1.2.6,1.2,1.2h0v7.2c0,.7-.6,1.2-1.2,1.2s-1.2-.5-1.2-1.2h0v-7.2c0-.7.6-1.2,1.2-1.2ZM79.8,14.2h.4c.3,0,.5.1.7.3.5.4.6,1.2.2,1.7h0l-4.4,5.2h3.4c.7,0,1.2.6,1.2,1.2s-.6,1.2-1.2,1.2h-6.1c-.3,0-.6,0-.8-.3-.5-.4-.6-1.2-.2-1.7h0l4.4-5.2h-2.9c-.7,0-1.2-.6-1.2-1.2s.6-1.2,1.2-1.2c0,0,5.3,0,5.3,0ZM84.6,14.2c.7,0,1.2.6,1.2,1.2h0v7.2c0,.7-.6,1.2-1.2,1.2s-1.2-.5-1.2-1.2h0v-7.2c0-.7.6-1.2,1.2-1.2ZM102.4,16.5c-1.4,0-2.5,1.1-2.5,2.5s1.1,2.5,2.5,2.5,2.5-1.1,2.5-2.5-1.1-2.5-2.5-2.5ZM59.4,10.3c.8,0,1.4.6,1.4,1.4s-.6,1.4-1.4,1.4-1.4-.6-1.4-1.4.6-1.4,1.4-1.4ZM84.6,10.3c.8,0,1.4.6,1.4,1.4s-.6,1.4-1.4,1.4-1.4-.6-1.4-1.4.6-1.4,1.4-1.4Z"/>
  <path id="Shape" class="st0" d="M7,16.9c0,1.8-1.4,3.1-3.6,3.1h-1.9v2.9c0,.4-.3.7-.7.7s-.7-.3-.7-.7v-8.3c0-.5.3-.8.8-.8h2.5c2.2,0,3.6,1.4,3.6,3.1ZM5.5,16.9c0-1.2-.8-1.8-2.1-1.8h-1.8v3.6h1.8c1.2,0,2.1-.5,2.1-1.8Z"/>
  <path id="Shape1" class="st0" d="M13,17.6v-.6c0-.4.3-.7.7-.7s.7.3.7.7v5.9c0,.4-.3.7-.7.7s-.7-.3-.7-.7v-.7c0,.6-.9,1.5-2.3,1.5s-3.4-1.2-3.4-3.7,1.9-3.7,3.4-3.7,1.9.5,2.3,1.4h0ZM13.1,19.9c0-1.7-1.2-2.4-2.1-2.4s-2.2.8-2.2,2.4,1.1,2.4,2.2,2.4,2.1-.7,2.1-2.4Z"/>
  <path id="Path" class="st0" d="M22.5,17.2l-3.7,8.5c-.1.3-.4.5-.7.5s-.6-.3-.6-.6,0-.2,0-.3l.8-2-2.7-6s0-.1,0-.3c0-.3.3-.6.7-.6s.5.1.7.5l2.1,4.9,2.1-4.9c.1-.3.4-.5.7-.5s.7.2.7.5c0,0,0,.2,0,.3Z"/>
  <path id="Path1" class="st0" d="M37.2,17.2l-1.8,5.7c0,.3-.4.5-.7.5s-.6-.2-.7-.5l-1.9-4.6-1.9,4.6c-.1.3-.4.5-.7.5s-.6-.2-.7-.5l-2-5.7v-.3c0-.4.3-.7.7-.7s.5.1.6.4l1.5,4.7,1.8-4.7c.1-.3.3-.4.6-.4s.5.1.6.4l1.8,4.7,1.5-4.7c0-.2.3-.4.6-.4s.8.2.8.6c0,0,0,.2,0,.4h0Z"/>
  <path id="Shape2" class="st0" d="M38.5,14.2c0-.4.3-.7.7-.7s.7.3.7.7-.3.7-.7.7-.7-.3-.7-.7ZM40,17v5.9c0,.4-.3.7-.7.7s-.7-.3-.7-.7v-5.9c0-.4.3-.7.7-.7s.7.3.7.7Z"/>
  <path id="Path2" class="st0" d="M45.2,22.8c0,.6-.6.8-1.4.8s-1.6-.3-1.6-1.9v-4.3h-.5c-.3,0-.6-.2-.6-.6s.2-.6.6-.6h.5v-1.1c0-.4.3-.7.7-.7s.7.3.7.7v1.1h1c.3,0,.6.2.6.6s-.2.6-.6.6h-1v4.3c0,.4,0,.6.5.6h.5c.3,0,.6.1.6.5h0Z"/>
  <path id="Path3" class="st0" d="M52.9,19.5v3.4c0,.4-.3.7-.7.7s-.7-.3-.7-.7v-3.4c0-1.4-.8-1.9-1.7-1.9-1.3,0-1.9,1.2-2,1.8v3.6c0,.4-.3.7-.7.7s-.7-.3-.7-.7v-8.5c0-.4.3-.7.7-.7s.7.3.7.7v3.6c0-.5.9-1.7,2.5-1.7s2.6.7,2.6,3.1h0Z"/>
</svg>