<svg width="31" height="56" viewBox="0 0 31 56" fill="none" xmlns="http://www.w3.org/2000/svg">
<path d="M13.0016 0.0289806C13.7512 -0.0557059 14.5102 0.0458972 15.2109 0.324757C17.405 1.21266 18.869 3.78029 19.6597 5.92242C19.8082 6.30786 19.903 6.76333 20.0329 7.14721C20.132 7.36372 20.2027 8.25947 20.5658 8.15076C21.7151 7.80664 22.8205 7.39904 24.0388 7.85979C27.2432 9.07199 27.0311 13.2225 26.2218 15.9411C26.0161 16.6321 25.7955 17.271 25.535 17.9388C25.471 18.1039 25.4308 18.3002 25.5082 18.4619C25.5735 18.5062 25.6324 18.5243 25.7129 18.4988C26.7591 18.1674 27.5613 17.7231 28.7093 18.003C29.4252 18.1787 30.0413 18.6328 30.4209 19.2645C31.5496 21.1727 30.8405 23.688 29.8911 25.5276C29.5544 26.1691 29.1704 26.7846 28.7424 27.3692C28.5587 27.6237 27.5971 28.7977 27.5971 28.9926C27.7338 29.2081 28.6551 29.1269 28.9492 29.1712C29.7453 29.2914 30.3993 29.7762 30.5772 30.6166C30.8557 31.9328 30.0995 33.6282 29.4117 34.7237C26.3226 39.6429 20.7113 42.1588 15.3885 43.8894C14.1634 44.2869 12.9484 44.6422 11.7045 44.9673C11.504 45.0198 11.2306 45.0681 11.0485 44.9555C10.9632 44.6909 11.5853 43.6048 11.738 43.3003C12.1524 42.4768 12.5549 41.6475 12.9453 40.8125C16.5141 33.1481 19.6621 23.9384 17.5129 15.4043C17.4503 15.1548 17.2636 14.3216 16.977 14.3377C16.7818 14.5371 16.9868 15.5255 17.0274 15.8364C17.3316 18.1569 17.2646 20.3702 16.9946 22.6858C16.6721 25.0816 16.1278 27.4423 15.3685 29.7373C14.6621 31.8665 13.8554 33.9608 12.9512 36.0135C12.2555 37.6132 11.5296 39.1935 10.8397 40.8034C9.07652 44.9172 7.89673 49.3031 5.41318 53.075C4.97327 53.7753 4.51472 54.3295 3.96556 54.9487C3.05593 55.9742 1.53837 56.3741 0.453689 55.354C0.143194 55.0624 -0.00740082 54.6286 0.000279492 54.1959C0.0153695 53.3419 0.698242 52.855 1.27166 52.3394C3.50748 50.3195 5.06641 47.8216 6.17085 45.0526C7.96077 40.5648 7.77337 36.1556 5.04899 32.0921C3.77805 30.1416 1.87445 28.2638 1.98681 25.7602C2.07065 23.7954 3.74614 22.3855 5.70188 22.832C6.01475 22.9034 6.76457 23.1892 7.01352 22.9539C7.05413 22.8155 7.02239 22.6928 6.92881 22.5783C5.2843 20.5461 3.27879 18.7918 3.03086 16.011C2.7451 12.875 5.35918 10.0782 8.53247 11.4671C8.84696 11.6048 9.47478 12.1052 9.73655 11.793C9.83633 11.4241 9.562 10.4624 9.47085 10.0594C8.86692 7.38889 8.23365 4.18217 9.98273 1.79359C10.7065 0.8052 11.8 0.202786 13.0016 0.0289806Z" fill="#304D30"/>
</svg>
