<svg width="136" height="88" viewBox="0 0 136 88" fill="none" xmlns="http://www.w3.org/2000/svg">
<path d="M116.741 6.80488C119.217 6.65223 120.66 7.68488 122.179 9.53216C122.749 10.2247 123.271 11.0333 123.951 11.6166C124.368 11.4901 125.055 11.1618 125.431 11.0971C128.983 10.4849 129.478 15.4607 129.257 17.8876C129.155 19.0142 128.652 20.7201 128.932 21.5707L129.105 21.6579C129.813 21.5411 130.481 21.0445 131.161 20.8142C132.918 20.2063 134.308 20.9509 134.703 22.7027C135.473 26.1194 133.501 29.0056 131.476 31.5249C131.333 31.7024 131.395 31.8043 131.452 31.9904C131.962 32.2617 134.443 31.2117 135.345 32.4489C137.45 35.3365 133.98 40.1987 131.958 42.1625C128.227 45.7848 122.69 47.4382 117.574 47.3733C118.233 46.2527 118.929 45.2417 119.567 44.0935C121.735 40.2408 123.18 36.0241 123.83 31.6515C124.618 26.1072 123.945 20.3059 121.44 15.2749C120.933 14.2557 120.406 13.1867 119.722 12.2778C119.986 13.0571 120.379 13.9239 120.668 14.732C121.137 16.0614 121.513 17.4215 121.795 18.8026C123.673 27.8078 121.162 37.4717 116.449 45.1939C115.912 46.6484 112.716 50.1258 112.679 51.5122C112.528 57.0362 111.728 56.879 116.363 56.8837C117.539 56.8694 119.969 56.5264 120.056 58.0987C120.184 60.3856 118.666 60.5609 116.854 60.459C115.791 60.399 114.673 60.459 113.638 60.4352C112.073 60.4009 112.553 62.2714 112.549 63.391L112.533 70.2166C112.529 72.98 112.493 75.7558 112.556 78.5278C112.636 82.105 114.827 84.0965 118.268 82.3022C118.956 81.942 119.857 81.3083 120.624 81.6695C121.343 82.428 120.685 83.3371 120.188 84.026C117.377 87.9205 110.295 89.0497 106.772 85.5725C104.526 83.3552 104.759 79.4959 104.762 76.5191L104.77 66.5518C104.771 64.8738 104.822 63.1309 104.698 61.4595C104.53 59.225 101.101 61.7454 101.025 59.0011C100.976 57.2449 102.513 57.2115 103.676 56.493C104.768 55.8184 105.713 54.9427 106.588 54.0117C110.957 49.3598 114.847 42.9195 111.383 36.5973C110.422 34.7115 109.052 33.0479 109.045 30.8301C109.027 28.4348 111.134 27.723 113.102 28.6059C113.526 28.7962 114.369 29.4171 114.733 29.0458C114.688 28.028 112.974 26.7138 112.281 25.975C110.543 24.1946 109.245 21.9431 109.65 19.3921C110.119 16.4353 112.515 16.2205 114.781 17.4371C115.166 17.644 115.702 18.0232 116.066 17.7625C116.144 17.5584 116.223 17.4553 116.13 17.2191C115.635 15.922 114.806 14.8815 114.437 13.5095C113.732 10.8837 113.602 7.7472 116.741 6.80488Z" fill="#729A71"/>
<path d="M27.6331 11.1988C27.9308 11.166 28.3524 11.114 28.6457 11.1184C29.1407 11.1227 29.6113 11.334 29.9435 11.7009C30.3271 12.1319 30.4364 12.7235 30.3823 13.2837C30.2908 14.1795 29.8304 14.9966 29.1116 15.539C27.8592 16.4741 26.5357 16.2019 25.1343 15.971C25.9128 17.0052 26.7273 17.948 27.2195 19.1592C29.5368 24.8608 27.6724 32.0125 21.622 34.4127C17.3474 36.1085 12.7474 36.13 8.52279 34.42C6.91945 35.5705 7.23371 37.3628 9.07966 37.9632C11.1451 38.5819 13.3411 38.5254 15.4735 38.6385C19.581 38.8564 25.2406 38.6379 28.284 41.9029C30.4364 44.3132 30.485 48.4344 29.0275 51.1781C27.4433 54.1597 24.5329 55.6386 21.4563 56.6019C17.276 57.6644 12.913 57.7931 8.67735 56.9783C5.14458 56.2627 0.687415 54.3483 0.0813735 50.3306C-0.429855 46.9412 1.53025 44.8065 4.20655 43.1444C3.83511 42.7664 3.43366 42.3664 3.1254 41.9367C2.26836 40.7392 1.92656 39.2484 2.17631 37.7971C2.56366 35.4499 3.93803 34.2421 5.77025 32.9488C-1.2665 27.7674 0.10853 17.241 7.98173 13.6994C12.5646 11.638 17.2918 11.9227 21.9377 13.6304C24.2563 12.4785 24.6939 11.6729 27.6331 11.1988ZM15.5781 32.3159C17.2 31.9573 18.3584 31.2817 19.2485 29.8425C21.9414 25.4884 21.1407 14.8834 14.0074 15.7673C9.06365 16.6164 8.1523 22.2402 8.86164 26.3814C9.49627 30.0868 11.5662 32.626 15.5781 32.3159ZM21.4147 52.5264C25.3482 50.2006 23.7244 46.2565 19.4446 45.7871C15.1643 45.3175 11.0479 45.2658 6.84588 44.2962C4.87891 47.0181 5.51345 49.7301 8.23968 51.5792C11.653 53.8938 17.7306 54.3979 21.4147 52.5264Z" fill="#375338"/>
<path d="M72.3429 0.044837C72.9518 -0.00337949 73.2949 -0.0909523 73.7866 0.280772C74.1163 0.52862 74.3507 0.881954 74.4508 1.28179C74.6213 1.9634 74.5527 6.43362 74.5518 7.44426L74.547 27.5653L74.5498 33.9146C74.5537 36.1998 74.1868 38.9121 76.2003 40.4353C77.5915 41.4874 77.9193 42.872 75.9983 43.4611C74.0896 44.0467 71.856 44.6437 69.8816 44.9034C66.7151 45.3199 66.9086 42.5143 66.7599 40.3321C63.2657 45.152 57.2711 46.2478 52.0231 43.7029C51.6347 43.4913 51.2578 43.2595 50.8939 43.0082C43.842 38.1506 44.0466 25.1685 48.6033 18.736C51.7961 14.2289 57.0066 11.6004 62.5691 12.6036C64.1642 12.8913 65.1429 13.48 66.4398 14.3837C66.4931 12.5004 66.7942 7.25654 65.7184 6.16709C63.0522 3.46754 62.8654 3.03378 67.4784 1.56032C69.0955 1.04185 70.7173 0.536722 72.3429 0.044837ZM59.7623 39.8326C63.8841 40.042 66.3712 37.0757 66.4703 33.131C66.515 29.9239 66.4741 26.7101 66.4988 23.5024C66.5074 22.3872 66.6179 20.6947 66.4188 19.6265C65.9109 16.894 62.7568 16.2261 60.4843 16.4386C53.7859 17.6015 52.7649 27.5992 53.7943 32.915C54.4708 36.4084 56.079 39.1572 59.7623 39.8326Z" fill="#375338"/>
<path d="M91.4248 12.3532C93.6984 12.2501 96.1664 12.3249 98.2675 13.2904C104.245 16.0371 103.997 21.4336 103.978 26.8774L103.964 34.5521C103.959 36.0438 103.851 38.2508 104.426 39.5047C105.399 41.6283 106.835 40.8908 108.517 41.1982C108.723 41.2789 108.924 41.4829 108.956 41.6902C109.193 43.2316 106.803 44.2068 105.578 44.5328C103.527 45.079 100.731 45.2463 98.8135 44.1558C97.3089 43.3002 96.8934 42.0351 96.5113 40.4894C94.5426 43.0298 92.7674 44.4998 89.4551 44.893C86.3782 45.2581 83.6529 44.6938 81.2021 42.7923C79.8137 41.6278 78.9256 39.9287 78.6007 38.1595C78.1147 35.5677 78.6817 32.8889 80.1777 30.7172C82.7648 27.0264 87.7161 25.476 91.9774 24.773C92.9961 24.6049 94.0538 24.6374 95.0658 24.4327C95.3945 24.3662 95.6289 24.277 95.8128 23.9748C96.294 23.1841 95.9034 21.0522 95.7137 20.1758C95.4279 18.8563 94.7951 17.4616 93.6069 16.7274C92.9399 16.3147 92.0098 16.2151 91.2428 16.2498C86.5602 16.4616 85.7703 21.9393 83.1355 22.4222C82.6438 22.5122 82.0997 22.4633 81.6871 22.1621C81.2164 21.8183 80.9067 21.1773 80.8209 20.6112C80.618 19.2618 81.5032 17.7701 82.3189 16.7526C84.5677 13.9439 87.9505 12.7308 91.4248 12.3532ZM87.8209 39.1567C91.1522 41.3245 95.1153 39.2892 95.7671 35.563C95.9091 34.7504 96.0482 28.2042 95.7995 27.805C95.546 27.7336 95.5613 27.7422 95.2992 27.79C92.5349 28.1112 89.3894 29.0682 87.6046 31.3477C86.5211 32.7594 86.0428 34.5435 86.2734 36.308C86.4392 37.5534 86.9195 38.3405 87.8209 39.1567Z" fill="#375338"/>
<path d="M61.9135 56.096C66.111 55.994 70.3018 56.964 72.5687 60.8538C73.4645 62.3908 73.9123 64.8988 73.3082 66.6064C71.4672 71.8063 63.905 72.5715 59.2773 73.6893C58.3635 73.8951 56.5018 74.0352 55.829 74.3839C55.6904 74.5545 55.5976 74.807 55.64 75.0243C56.9494 81.7307 63.4419 84.5532 69.3756 81.2981C70.6791 80.5835 74.0953 76.8662 74.0905 80.189C73.6951 81.4277 73.1729 82.2205 72.3457 83.2344C67.729 88.8937 57.6845 89.0375 52.3175 84.4598C45.7913 78.894 45.9129 67.404 51.4528 61.1644C54.2559 58.0084 57.7075 56.3732 61.9135 56.096ZM55.4149 71.1374C56.7558 70.9697 57.6063 70.7791 58.9043 70.398C61.5757 69.5318 64.754 68.4131 66.1014 65.7326C67.1144 63.7182 66.5407 61.0682 64.3786 60.1286C63.7344 59.8485 63.2351 59.7617 62.5395 59.7112C56.9394 60.1439 54.9839 66.3301 55.4149 71.1374Z" fill="#729A71"/>
<path d="M87.4054 56.0917C89.8239 55.8573 97.7253 56.369 98.6944 59.8442C98.925 60.6704 98.9174 64.5953 98.4104 65.2519C97.0401 67.0262 95.6775 64.0846 95.1153 63.2298C94.8047 62.76 94.454 62.3189 94.0662 61.911C91.7506 59.485 87.6684 58.553 84.9336 61.002C84.4362 61.446 83.9283 62.7848 84.0112 63.4442C84.4981 67.3378 90.0678 68.0353 92.9475 69.5218C94.7885 70.3041 96.5103 71.1703 97.994 72.5406C101.282 75.5803 101.158 81.3558 98.0407 84.4946C95.3106 87.2428 91.4619 87.7507 87.7456 87.7745C84.3009 87.5458 77.8298 86.8664 77.0884 82.425C76.9245 81.4397 76.7511 78.5591 77.3772 77.8272C78.918 76.0244 79.8604 79.1861 80.5427 80.0961C81.0687 80.8155 81.5651 81.4092 82.1998 81.9742C84.036 83.5751 86.4249 84.3946 88.8567 84.2564C91.2856 84.1049 93.846 82.7747 93.4525 79.9608C92.9551 76.4065 87.5398 75.6137 84.8774 74.3168C83.308 73.5526 81.79 72.9989 80.4236 71.8583C76.6415 69.072 76.1717 63.7492 79.1314 60.1529C81.2573 57.5696 84.0722 56.4328 87.4054 56.0917Z" fill="#729A71"/>
<path d="M37.4311 49.8774C37.8577 49.883 38.2419 49.9432 38.5974 50.1986C39.8312 51.0855 38.9995 54.6952 39.2991 56.195C39.6089 57.7454 44.9133 56.2293 46.174 57.1565C46.521 57.4119 46.7553 57.7549 46.7977 58.1895C46.8532 58.7583 46.5756 59.3663 46.1993 59.7808C45.9068 60.1019 45.4868 60.3563 45.0605 60.4507C44.533 60.5679 43.8848 60.464 43.3424 60.4612C41.9914 60.4526 40.6339 60.4307 39.2847 60.504C39.0964 63.5952 39.305 67.4354 39.2354 70.6028C39.1739 73.4015 39.2245 76.5203 39.3087 79.3037C39.3403 80.3509 39.9057 81.888 40.6933 82.3978C42.4515 84.1454 45.6837 81.3744 46.3439 81.4868C49.123 81.9623 45.1495 85.4375 44.6332 85.8434C43.994 86.2894 43.3047 86.6601 42.5793 86.9459C40.3433 87.8264 37.5788 87.9341 35.35 86.985C30.8392 85.064 31.5799 79.2732 31.5815 75.251L31.5927 64.9569C31.5963 63.9297 31.7185 62.1259 31.4514 61.1863C30.9141 59.9514 29.2311 60.7032 28.2435 60.2487C27.4338 59.8761 27.5916 58.8355 27.8552 58.1675C28.013 57.7673 28.4977 57.4834 28.9191 57.3709C31.9507 56.561 34.1436 54.1196 35.6415 51.4763C36.138 50.6153 36.4624 50.0978 37.4311 49.8774Z" fill="#729A71"/>
<path d="M39.6678 12.5177C40.192 12.4816 40.679 12.4234 41.1444 12.7324C42.1324 13.3885 41.8749 16.7929 41.8737 17.9287L41.8609 31.8342C41.8596 33.7793 41.8456 35.7376 41.8705 37.6708C41.8897 39.1708 42.0896 40.3068 43.2187 41.3649C43.6549 41.8292 44.2614 42.35 44.3519 43.0057C44.6275 45.0023 41.0428 44.5529 39.7327 44.5508L33.9639 44.5346C33.4056 44.5352 31.9451 44.4527 31.7627 43.8093C31.3521 42.3613 33.4093 41.3614 33.7875 40.117C33.9704 39.4806 34.139 38.7124 34.1446 38.0467C34.1863 33.0867 34.1641 28.1225 34.1863 23.1622C34.1925 21.7769 34.1508 20.5996 33.8432 19.2462C33.5199 17.8233 31.3171 17.1585 31.7818 15.6666C31.8722 15.3755 32.3151 15.0518 32.5784 14.9164C34.858 13.986 37.3085 13.2462 39.6678 12.5177Z" fill="#375338"/>
</svg>
