<svg width="972" height="256" viewBox="0 0 972 256" fill="none" xmlns="http://www.w3.org/2000/svg">
<rect x="5" y="5" width="285" height="246" rx="50" stroke="url(#paint0_linear_290_286)" stroke-width="10"/>
<path d="M57.8659 60V186.925H41V60H57.8659Z" fill="url(#paint1_linear_290_286)"/>
<path d="M77.279 146.911C77.279 144.559 77.7092 142.379 78.5697 140.371C79.4876 138.306 80.6923 136.499 82.1839 134.95C83.7328 133.401 85.5399 132.197 87.6051 131.336C89.6703 130.418 91.8502 129.959 94.1449 129.959H137.859V112.233H82.5281V95.2808H137.859C140.211 95.2808 142.419 95.7397 144.485 96.6576C146.55 97.5181 148.328 98.7228 149.82 100.272C151.369 101.763 152.573 103.542 153.434 105.607C154.352 107.672 154.811 109.881 154.811 112.233V186.925H137.859V171.436C137.687 173.558 137.113 175.566 136.138 177.459C135.162 179.352 133.9 181.016 132.351 182.45C130.86 183.827 129.139 184.917 127.188 185.72C125.238 186.523 123.173 186.925 120.993 186.925H94.1449C91.8502 186.925 89.6703 186.495 87.6051 185.634C85.5399 184.716 83.7328 183.511 82.1839 182.02C80.6923 180.471 79.4876 178.664 78.5697 176.599C77.7092 174.534 77.279 172.325 77.279 169.973V146.911ZM94.1449 169.973H137.859V146.911H94.1449V169.973Z" fill="url(#paint2_linear_290_286)"/>
<path d="M255.37 169.973C255.37 172.325 254.911 174.534 253.993 176.599C253.132 178.664 251.928 180.471 250.379 182.02C248.887 183.511 247.109 184.716 245.043 185.634C242.978 186.495 240.77 186.925 238.418 186.925H191.176C188.881 186.925 186.701 186.495 184.636 185.634C182.571 184.716 180.764 183.511 179.215 182.02C177.723 180.471 176.518 178.664 175.601 176.599C174.74 174.534 174.31 172.325 174.31 169.973V60H191.176V111.458C191.29 109.221 191.807 107.127 192.725 105.177C193.643 103.169 194.847 101.448 196.339 100.014C197.888 98.522 199.666 97.3747 201.674 96.5716C203.682 95.7111 205.833 95.2808 208.128 95.2808H238.418C240.77 95.2808 242.978 95.7397 245.043 96.6576C247.109 97.5181 248.887 98.7228 250.379 100.272C251.928 101.763 253.132 103.542 253.993 105.607C254.911 107.672 255.37 109.881 255.37 112.233V169.973ZM191.176 112.233V169.973H238.418V112.233H191.176Z" fill="url(#paint3_linear_290_286)"/>
<path d="M387.58 186.925L343.866 147.772V186.925H327V60H343.866V131.422L384.052 95.2808H407.888L358.667 139.511L411.416 186.925H387.58Z" fill="url(#paint4_linear_290_286)"/>
<path d="M414.909 95.2808H431.775V169.973H479.017V95.2808H495.969V186.925H479.017V171.436C478.845 173.558 478.271 175.566 477.296 177.459C476.321 179.352 475.059 181.016 473.51 182.45C472.018 183.827 470.297 184.917 468.347 185.72C466.396 186.523 464.331 186.925 462.151 186.925H431.775C429.481 186.925 427.301 186.495 425.236 185.634C423.17 184.716 421.363 183.511 419.814 182.02C418.323 180.471 417.118 178.664 416.2 176.599C415.34 174.534 414.909 172.325 414.909 169.973V95.2808Z" fill="url(#paint5_linear_290_286)"/>
<path d="M532.248 112.233V186.925H515.382V95.2808H532.248V111.458C532.363 109.221 532.879 107.127 533.797 105.177C534.715 103.169 535.92 101.448 537.411 100.014C538.96 98.522 540.739 97.3747 542.746 96.5716C544.754 95.7111 546.905 95.2808 549.2 95.2808H567.185C569.537 95.2808 571.717 95.7397 573.725 96.6576C575.79 97.5181 577.597 98.7228 579.146 100.272C580.695 101.763 581.899 103.542 582.76 105.607C583.678 107.672 584.137 109.881 584.137 112.233V127.722H567.185V112.233H532.248Z" fill="url(#paint6_linear_290_286)"/>
<path d="M596.408 95.2808H613.274V169.973H660.515V95.2808H677.467V186.925H660.515V171.436C660.343 173.558 659.77 175.566 658.794 177.459C657.819 179.352 656.557 181.016 655.008 182.45C653.517 183.827 651.796 184.917 649.845 185.72C647.895 186.523 645.829 186.925 643.649 186.925H613.274C610.979 186.925 608.799 186.495 606.734 185.634C604.668 184.716 602.861 183.511 601.312 182.02C599.821 180.471 598.616 178.664 597.698 176.599C596.838 174.534 596.408 172.325 596.408 169.973V95.2808Z" fill="url(#paint7_linear_290_286)"/>
<path d="M713.746 60V186.925H696.88V60H713.746Z" fill="url(#paint8_linear_290_286)"/>
<path d="M733.159 95.2808H750.025V169.973H797.267V95.2808H814.219V186.925H797.267V171.436C797.095 173.558 796.521 175.566 795.546 177.459C794.571 179.352 793.309 181.016 791.76 182.45C790.268 183.827 788.547 184.917 786.597 185.72C784.646 186.523 782.581 186.925 780.401 186.925H750.025C747.731 186.925 745.551 186.495 743.486 185.634C741.42 184.716 739.613 183.511 738.064 182.02C736.573 180.471 735.368 178.664 734.45 176.599C733.59 174.534 733.159 172.325 733.159 169.973V95.2808Z" fill="url(#paint9_linear_290_286)"/>
<path d="M906.259 112.233V186.925H889.307V112.233H850.498V186.925H833.632V95.2808H850.498V111.458C850.613 109.221 851.129 107.127 852.047 105.177C852.965 103.169 854.17 101.448 855.661 100.014C857.21 98.522 858.989 97.3747 860.996 96.5716C863.004 95.7111 865.156 95.2808 867.45 95.2808H889.307C891.544 95.2808 893.667 95.7111 895.675 96.5716C897.683 97.3747 899.461 98.522 901.01 100.014C902.559 101.448 903.792 103.169 904.71 105.177C905.685 107.127 906.202 109.221 906.259 111.458C906.374 109.221 906.861 107.127 907.722 105.177C908.64 103.169 909.845 101.448 911.336 100.014C912.885 98.522 914.663 97.3747 916.671 96.5716C918.679 95.7111 920.83 95.2808 923.125 95.2808H944.982C947.334 95.2808 949.543 95.7397 951.608 96.6576C953.673 97.5181 955.451 98.7228 956.943 100.272C958.492 101.763 959.697 103.542 960.557 105.607C961.475 107.672 961.934 109.881 961.934 112.233V186.925H944.982V112.233H906.259Z" fill="url(#paint10_linear_290_286)"/>
<defs>
<linearGradient id="paint0_linear_290_286" x1="147.5" y1="0" x2="147.5" y2="256" gradientUnits="userSpaceOnUse">
<stop stop-color="#697DBA"/>
<stop offset="1" stop-color="#284392"/>
</linearGradient>
<linearGradient id="paint1_linear_290_286" x1="-0.500008" y1="-37" x2="44.5854" y2="220.125" gradientUnits="userSpaceOnUse">
<stop stop-color="#566EBA"/>
<stop offset="1" stop-color="#1E3A8A"/>
</linearGradient>
<linearGradient id="paint2_linear_290_286" x1="-0.500008" y1="-37" x2="44.5854" y2="220.125" gradientUnits="userSpaceOnUse">
<stop stop-color="#566EBA"/>
<stop offset="1" stop-color="#1E3A8A"/>
</linearGradient>
<linearGradient id="paint3_linear_290_286" x1="-0.500008" y1="-37" x2="44.5854" y2="220.125" gradientUnits="userSpaceOnUse">
<stop stop-color="#566EBA"/>
<stop offset="1" stop-color="#1E3A8A"/>
</linearGradient>
<linearGradient id="paint4_linear_290_286" x1="255" y1="-84" x2="262.6" y2="187.764" gradientUnits="userSpaceOnUse">
<stop stop-color="#566EBA"/>
<stop offset="1" stop-color="#1E3A8A"/>
</linearGradient>
<linearGradient id="paint5_linear_290_286" x1="255" y1="-84" x2="262.6" y2="187.764" gradientUnits="userSpaceOnUse">
<stop stop-color="#566EBA"/>
<stop offset="1" stop-color="#1E3A8A"/>
</linearGradient>
<linearGradient id="paint6_linear_290_286" x1="255" y1="-84" x2="262.6" y2="187.764" gradientUnits="userSpaceOnUse">
<stop stop-color="#566EBA"/>
<stop offset="1" stop-color="#1E3A8A"/>
</linearGradient>
<linearGradient id="paint7_linear_290_286" x1="255" y1="-84" x2="262.6" y2="187.764" gradientUnits="userSpaceOnUse">
<stop stop-color="#566EBA"/>
<stop offset="1" stop-color="#1E3A8A"/>
</linearGradient>
<linearGradient id="paint8_linear_290_286" x1="255" y1="-84" x2="262.6" y2="187.764" gradientUnits="userSpaceOnUse">
<stop stop-color="#566EBA"/>
<stop offset="1" stop-color="#1E3A8A"/>
</linearGradient>
<linearGradient id="paint9_linear_290_286" x1="255" y1="-84" x2="262.6" y2="187.764" gradientUnits="userSpaceOnUse">
<stop stop-color="#566EBA"/>
<stop offset="1" stop-color="#1E3A8A"/>
</linearGradient>
<linearGradient id="paint10_linear_290_286" x1="255" y1="-84" x2="262.6" y2="187.764" gradientUnits="userSpaceOnUse">
<stop stop-color="#566EBA"/>
<stop offset="1" stop-color="#1E3A8A"/>
</linearGradient>
</defs>
</svg>
